<?xml version="1.0" encoding="utf-8"?>
<!-- Generator: Adobe Illustrator 26.4.1, SVG Export Plug-In . SVG Version: 6.00 Build 0)  -->
<svg version="1.1" id="图层_1" xmlns="http://www.w3.org/2000/svg" xmlns:xlink="http://www.w3.org/1999/xlink" x="0px" y="0px"
	 viewBox="0 0 1440 1024" style="enable-background:new 0 0 1440 1024;" xml:space="preserve">
<style type="text/css">
	.st0{fill:#8CBF48;stroke:#000000;stroke-width:2;stroke-miterlimit:10;}
	.st1{fill:#EBB61F;stroke:#000000;stroke-width:2;stroke-miterlimit:10;}
	.st2{fill:#E94720;stroke:#000000;stroke-width:2;stroke-miterlimit:10;}
	.st3{fill:#4899D4;stroke:#000000;stroke-width:2;stroke-miterlimit:10;}
	.st4{fill:#FFFFFF;stroke:#000000;stroke-width:2;stroke-miterlimit:10;}
</style>
<g>
	<polygon class="st0" points="111,102.3 145.5,141 150.9,69.3 	"/>
	<path class="st0" d="M61.4,68.9l12,17c0.7-0.3,1.4-0.4,2.2-0.4c2.9,0,5.3,2.1,5.3,4.7c0,1.5-0.8,2.7-2,3.6l48,67.8V-23.7L61.4,68.9
		z M88.2,55.9c-2.2,0-4-1.8-4-4c0-2.2,1.8-4,4-4c2.2,0,4,1.8,4,4C92.2,54.1,90.4,55.9,88.2,55.9z"/>
</g>
<g>
	<polygon class="st0" points="1326.3,126.9 1360.8,165.5 1366.2,93.8 	"/>
	<path class="st1" d="M1276.7,114.1l12,13.2c0.7-0.2,1.4-0.3,2.2-0.3c2.9,0,5.3,1.6,5.3,3.6c0,1.1-0.8,2.1-2,2.8l48,52.6V42.2
		L1276.7,114.1z M1309.5,96.7c-2.2,0-4-1.8-4-4c0-2.2,1.8-4,4-4s4,1.8,4,4C1313.5,94.9,1311.7,96.7,1309.5,96.7z"/>
</g>
<g>
	<polygon class="st1" points="906.9,70.3 942.8,91 945.5,55.2 	"/>
	<path class="st1" d="M724.3,47.9L760.8,63c2-0.2,4.3-0.4,6.6-0.4c9,0,16.2,1.9,16.2,4.2c0,1.3-2.4,2.4-6,3.2l145.8,60.5V-34.7
		L724.3,47.9z M804.7,31c-2.2,0-4-1.8-4-4c0-2.2,1.8-4,4-4c2.2,0,4,1.8,4,4C808.7,29.2,806.9,31,804.7,31z"/>
</g>
<g>
	<polygon class="st1" points="285.4,149.2 346.8,184.6 346.8,113.7 	"/>
	<path class="st1" d="M140.9,105.2v61.6c0.1,0,0.2,0,0.3,0c3.8,0,6.8,3.1,6.8,6.8c0,3.8-3.1,6.8-6.8,6.8c-0.1,0-0.2,0-0.3,0v12.8
		h161v-88H140.9z M161.5,131.5c-2.8,0-5.1-2.3-5.1-5.1s2.3-5.1,5.1-5.1s5.1,2.3,5.1,5.1S164.3,131.5,161.5,131.5z"/>
</g>
<g>
	<polygon class="st2" points="308.6,224.9 340.8,250.4 346.8,209.7 	"/>
	<path class="st2" d="M280.4,168.7c-24.5,0-44.4,19.9-44.4,44.4c0,5.4,1,10.5,2.7,15.3c0.8-0.5,1.7-0.7,2.7-0.7c3,0,5.4,2.4,5.4,5.4
		c0,2.2-1.3,4.1-3.2,4.9c8,11.8,21.5,19.6,36.9,19.6c24.5,0,44.4-19.9,44.4-44.4S304.9,168.7,280.4,168.7z M252.2,202.5
		c-2,0-3.7-1.6-3.7-3.7c0-2,1.6-3.7,3.7-3.7c2,0,3.7,1.6,3.7,3.7C255.9,200.8,254.2,202.5,252.2,202.5z"/>
</g>
<g>
	
		<rect x="493.6" y="63.1" transform="matrix(0.7071 0.7071 -0.7071 0.7071 208.8182 -338.6583)" class="st2" width="39.3" height="39.3"/>
	<path class="st0" d="M452.7,27.1l-55.6,55.6l22.1,22.1c1.3-0.3,2.8-0.5,4.4-0.5c5.1,0,9.3,1.9,9.3,4.3c0,1.8-2.5,3.4-5.9,4
		l25.7,25.7l55.6-55.6L452.7,27.1z M430.2,78c-2.5,0-4.5-2-4.5-4.5s2-4.5,4.5-4.5s4.5,2,4.5,4.5S432.7,78,430.2,78z"/>
</g>
<g>
	<polygon class="st1" points="1157.7,149 1193.5,169.7 1196.2,133.9 	"/>
	<g>
		<path class="st3" d="M1112.4,93.5l-66,55.6l26.2,22.1c1.6-0.3,3.3-0.5,5.2-0.5c6.1,0,11.1,1.9,11.1,4.3c0,1.8-2.9,3.4-7,4
			l30.5,25.7l66-55.6L1112.4,93.5z M1085.7,144.4c-3,0-5.4-2-5.4-4.5c0-2.5,2.4-4.5,5.4-4.5c3,0,5.4,2,5.4,4.5
			C1091.1,142.3,1088.7,144.4,1085.7,144.4z"/>
	</g>
</g>
<g>
	<path class="st3" d="M856.1,162.7V71.9c-18,7.2-30.7,24.8-30.7,45.4S838.1,155.5,856.1,162.7z"/>
	<polygon class="st3" points="642.8,138.3 834.9,178 834.9,64.6 642.8,104.3 	"/>
	<circle class="st4" cx="672.3" cy="113.7" r="6.7"/>
</g>
</svg>
