<?xml version="1.0" encoding="utf-8"?>
<!-- Generator: Adobe Illustrator 26.4.1, SVG Export Plug-In . SVG Version: 6.00 Build 0)  -->
<svg version="1.1" id="图层_1" xmlns="http://www.w3.org/2000/svg" xmlns:xlink="http://www.w3.org/1999/xlink" x="0px" y="0px"
	 viewBox="0 0 1440 1024" style="enable-background:new 0 0 1440 1024;" xml:space="preserve">
<style type="text/css">
	.st0{fill:#8CBF48;stroke:#000000;stroke-width:2;stroke-miterlimit:10;}
	.st1{fill:#EBB61F;stroke:#000000;stroke-width:2;stroke-miterlimit:10;}
	.st2{fill:#E94720;stroke:#000000;stroke-width:2;stroke-miterlimit:10;}
	.st3{fill:#4899D4;stroke:#000000;stroke-width:2;stroke-miterlimit:10;}
	.st4{fill:#FFFFFF;stroke:#000000;stroke-width:2;stroke-miterlimit:10;}
</style>
<g>
	<polygon class="st0" points="1316.6,102.3 1282.1,141 1276.7,69.3 	"/>
	<path class="st0" d="M1300.7-23.7v185.2l48-67.8c-1.2-0.9-2-2.1-2-3.6c0-2.6,2.4-4.7,5.3-4.7c0.8,0,1.5,0.2,2.2,0.4l12-17
		L1300.7-23.7z M1335.3,51.9c0-2.2,1.8-4,4-4s4,1.8,4,4c0,2.2-1.8,4-4,4S1335.3,54.1,1335.3,51.9z"/>
</g>
<g>
	<polygon class="st0" points="101.2,126.9 66.8,165.5 61.4,93.8 	"/>
	<path class="st1" d="M85.3,42.2V186l48-52.6c-1.2-0.7-2-1.7-2-2.8c0-2,2.4-3.6,5.3-3.6c0.8,0,1.5,0.1,2.2,0.3l12-13.2L85.3,42.2z
		 M114.1,92.7c0-2.2,1.8-4,4-4c2.2,0,4,1.8,4,4c0,2.2-1.8,4-4,4C115.9,96.7,114.1,94.9,114.1,92.7z"/>
</g>
<g>
	<polygon class="st1" points="520.6,70.3 484.8,91 482.1,55.2 	"/>
	<path class="st1" d="M504.1-34.7v165.2L649.9,70c-3.6-0.8-6-1.9-6-3.2c0-2.3,7.3-4.2,16.2-4.2c2.4,0,4.6,0.1,6.6,0.4l36.5-15.2
		L504.1-34.7z M618.8,27c0-2.2,1.8-4,4-4c2.2,0,4,1.8,4,4c0,2.2-1.8,4-4,4C620.6,31,618.8,29.2,618.8,27z"/>
</g>
<g>
	<polygon class="st1" points="1142.2,149.2 1080.8,184.6 1080.8,113.7 	"/>
	<path class="st1" d="M1125.7,105.2v88h161v-12.8c-0.1,0-0.2,0-0.3,0c-3.8,0-6.8-3.1-6.8-6.8c0-3.8,3.1-6.8,6.8-6.8
		c0.1,0,0.2,0,0.3,0v-61.6H1125.7z M1261,126.4c0-2.8,2.3-5.1,5.1-5.1c2.8,0,5.1,2.3,5.1,5.1s-2.3,5.1-5.1,5.1
		C1263.3,131.5,1261,129.2,1261,126.4z"/>
</g>
<g>
	<polygon class="st2" points="1119,224.9 1086.8,250.4 1080.8,209.7 	"/>
	<path class="st2" d="M1102.8,213.2c0,24.5,19.9,44.4,44.4,44.4c15.3,0,28.9-7.8,36.9-19.6c-1.9-0.8-3.2-2.7-3.2-4.9
		c0-3,2.4-5.4,5.4-5.4c1,0,1.9,0.3,2.7,0.7c1.7-4.8,2.7-9.9,2.7-15.3c0-24.5-19.9-44.4-44.4-44.4S1102.8,188.6,1102.8,213.2z
		 M1171.7,198.8c0-2,1.6-3.7,3.7-3.7s3.7,1.6,3.7,3.7c0,2-1.6,3.7-3.7,3.7S1171.7,200.8,1171.7,198.8z"/>
</g>
<g>
	
		<rect x="894.7" y="63.1" transform="matrix(-0.7071 0.7071 -0.7071 -0.7071 1619.4103 -505.3083)" class="st2" width="39.3" height="39.3"/>
	<path class="st0" d="M919.2,82.7l55.6,55.6l25.7-25.7c-3.5-0.6-5.9-2.2-5.9-4c0-2.4,4.2-4.3,9.3-4.3c1.6,0,3.1,0.2,4.4,0.5
		l22.1-22.1l-55.6-55.6L919.2,82.7z M992.8,73.4c0-2.5,2-4.5,4.5-4.5s4.5,2,4.5,4.5s-2,4.5-4.5,4.5S992.8,75.9,992.8,73.4z"/>
</g>
<g>
	<polygon class="st1" points="269.9,149 234.1,169.7 231.4,133.9 	"/>
	<g>
		<path class="st3" d="M249.2,149.2l66,55.6l30.5-25.7c-4.1-0.6-7-2.2-7-4c0-2.4,4.9-4.3,11.1-4.3c1.9,0,3.7,0.2,5.2,0.5l26.2-22.1
			l-66-55.6L249.2,149.2z M336.5,139.8c0-2.5,2.4-4.5,5.4-4.5c3,0,5.4,2,5.4,4.5c0,2.5-2.4,4.5-5.4,4.5
			C338.9,144.4,336.5,142.3,336.5,139.8z"/>
	</g>
</g>
<g>
	<path class="st3" d="M571.5,162.7V71.9c18,7.2,30.7,24.8,30.7,45.4S589.4,155.5,571.5,162.7z"/>
	<polygon class="st3" points="784.8,138.3 592.7,178 592.7,64.6 784.8,104.3 	"/>
	<circle class="st4" cx="755.3" cy="113.7" r="6.7"/>
</g>
</svg>
